# xmcd
#
# Track frame offsets: 
#        150
#        15900
#        31552
#        63632
#        81807
#        103320
#        122325
#        140337
#        163725
#        177235
#        193077
#        217782
#
# Disc length: 3362 seconds
#
# Revision: 3
# Processed by: cddbd v1.5.2PL0 Copyright (c) Steve Scherf et al.
# Submitted via: ExactAudioCopy v0.99pb4
#
DISCID=950d200c
DTITLE=Harry Banks buzzers - Roots, rocks and the devil's music
DYEAR=2000
DGENRE=Blues
TTITLE0=Cat man blues
TTITLE1=My washerwoman's gone
TTITLE2=Ground hog blues
TTITLE3=Fare thee well blues
TTITLE4=Round and round
TTITLE5=Down to georgia
TTITLE6=Westbound girl
TTITLE7=Breathing space
TTITLE8=Sugar baby
TTITLE9=Lucy Maes blues
TTITLE10=Pony blues
TTITLE11=The angel of death
EXTD=YEAR: 2000
EXTT0=
EXTT1=
EXTT2=
EXTT3=
EXTT4=
EXTT5=
EXTT6=
EXTT7=
EXTT8=
EXTT9=
EXTT10=
EXTT11=
PLAYORDER=
